<svg xmlns="http://www.w3.org/2000/svg" xmlns:xlink="http://www.w3.org/1999/xlink" width="1000" zoomAndPan="magnify" viewBox="0 0 750 525.000007" height="700" preserveAspectRatio="xMidYMid meet" version="1.0"><defs><g/><clipPath id="ab7db716f2"><path d="M 335 175 L 382.484375 175 L 382.484375 188 L 335 188 Z M 335 175 " clip-rule="nonzero"/></clipPath></defs><path fill="#000000" d="M 199.605469 66.265625 L 201.644531 68.902344 C 187.898438 78.570312 189.089844 77.699219 199.730469 94.230469 L 71.792969 205.289062 C 40.472656 206.308594 45.71875 201.832031 46.511719 227.210938 C 27.199219 243.816406 27.574219 237.402344 47.53125 260.371094 L 52.453125 418.507812 L 50.066406 419.203125 C 1.027344 433.421875 41.640625 454.597656 94.164062 454.597656 C 134.007812 454.597656 171.765625 441.699219 157.125 428.25 C 141.21875 413.660156 97.171875 412.714844 74.03125 414.703125 L 68.511719 236.855469 L 211.535156 112.722656 L 212.777344 114.613281 C 226.324219 115.632812 224.683594 133.550781 220.609375 146.652344 C 212.554688 172.503906 226.050781 206.78125 230.402344 216.722656 L 237.164062 213.863281 L 231.695312 222.488281 C 212.457031 251.769531 340.042969 172.105469 353.617188 142.898438 C 354.832031 140.238281 355.183594 138.722656 348.570312 140.3125 L 338.378906 142.773438 L 343.574219 137.15625 C 335.667969 129.699219 308.003906 105.390625 280.960938 104.222656 C 267.164062 103.625 249.691406 98.953125 253.445312 86.003906 C 225.332031 49.339844 229.109375 49.613281 214.144531 60.125 L 212.28125 57.714844 C 204.898438 48.171875 193.441406 58.285156 199.605469 66.265625 Z M 21.632812 435.507812 C 20.761719 429.296875 24.339844 420.570312 45.941406 413.808594 L 41.242188 262.832031 C 22.476562 241.332031 19.148438 242.300781 40.050781 224.378906 C 39.082031 197.457031 39.253906 199.871094 69.332031 198.976562 L 191.378906 93.0625 C 184.316406 82.199219 181.359375 76.382812 192.84375 67.410156 C 186.355469 54.085938 203.53125 40.316406 215.3125 51.574219 C 231.074219 41.109375 232.390625 48.171875 260.703125 85.03125 C 259.734375 87.195312 258.640625 89.160156 259.90625 91.148438 C 262.09375 94.726562 270.667969 97.410156 281.234375 97.882812 C 312.03125 99.199219 342.902344 127.636719 349.167969 133.703125 C 359.183594 132.0625 362.863281 138.078125 359.382812 145.582031 C 348.222656 169.621094 237.261719 249.804688 224.335938 231.460938 C 222.472656 228.800781 222.796875 225.222656 225.257812 220.800781 C 221.652344 212.871094 205.371094 174.191406 214.542969 144.761719 C 217.027344 136.785156 220.160156 120.976562 211.785156 120.949219 L 74.972656 239.664062 L 80.195312 407.820312 C 123.570312 404.835938 166.769531 415.722656 166.769531 434.140625 C 166.769531 468.691406 26.578125 470.308594 21.632812 435.507812 " fill-opacity="1" fill-rule="nonzero"/><path fill="#000000" d="M 50.613281 235.515625 C 50.613281 241.28125 59.164062 241.03125 59.164062 235.515625 C 59.164062 229.921875 50.613281 229.894531 50.613281 235.515625 Z M 44.25 235.515625 C 44.25 221.695312 65.527344 221.496094 65.527344 235.515625 C 65.527344 249.609375 44.25 249.582031 44.25 235.515625 " fill-opacity="1" fill-rule="nonzero"/><path fill="#000000" d="M 352.347656 132.929688 C 328.660156 132.929688 210.667969 212.398438 224.164062 231.585938 C 237.609375 250.703125 373.476562 155.972656 359.65625 136.335938 C 358.585938 134.796875 356.425781 132.929688 352.347656 132.929688 Z M 352.347656 139.292969 C 376.359375 139.292969 239.203125 241.925781 229.359375 227.933594 C 222.25 217.792969 327.714844 139.292969 352.347656 139.292969 " fill-opacity="1" fill-rule="nonzero"/><path fill="#000000" d="M 281.929688 219.605469 C 280.363281 219.605469 278.847656 220.550781 278.550781 222.589844 C 272.832031 263.453125 271.242188 265.464844 275.964844 266.136719 C 281.707031 266.933594 280.488281 258.902344 285.460938 223.558594 C 285.808594 221.046875 283.84375 219.605469 281.929688 219.605469 " fill-opacity="1" fill-rule="nonzero"/><path fill="#000000" d="M 319.191406 208.816406 C 318.542969 208.816406 317.945312 209.140625 317.277344 209.664062 C 313.347656 212.621094 316.503906 214.410156 340.664062 246.449219 C 343.449219 250.128906 348.992188 245.953125 346.234375 242.273438 C 326.324219 215.878906 322.222656 208.816406 319.191406 208.816406 " fill-opacity="1" fill-rule="nonzero"/><g clip-path="url(#ab7db716f2)"><path fill="#000000" d="M 338.828125 175.683594 C 334.800781 175.683594 334.105469 181.996094 338.453125 182.621094 C 362.886719 186.050781 373.425781 187.964844 378.097656 187.964844 C 381.230469 187.964844 381.730469 187.09375 381.976562 185.203125 C 382.648438 180.457031 380.210938 181.425781 339.421875 175.734375 C 339.222656 175.710938 339.023438 175.683594 338.828125 175.683594 " fill-opacity="1" fill-rule="nonzero"/></g><g fill="#000000" fill-opacity="1"><g transform="translate(220.472017, 323.582286)"><g><path d="M 1.648438 -55.59375 L 1.648438 -46.660156 L 5.722656 -46.660156 L 21.769531 0 L 33.5625 0 L 45.964844 -43.363281 L 58.195312 0 L 70.078125 0 L 86.035156 -46.660156 L 90.199219 -46.660156 L 90.199219 -55.59375 L 69.46875 -55.59375 L 69.46875 -46.660156 L 73.980469 -46.660156 L 63.660156 -15.175781 L 51.691406 -55.59375 L 40.070312 -55.59375 L 28.1875 -15.175781 L 17.867188 -46.660156 L 22.375 -46.660156 L 22.375 -55.59375 Z M 1.648438 -55.59375 "/></g></g></g><g fill="#000000" fill-opacity="1"><g transform="translate(339.807567, 323.582286)"><g><path d="M 32.261719 -47.789062 C 44.230469 -47.789062 48.914062 -38.855469 48.914062 -27.839844 C 48.914062 -16.824219 44.230469 -7.804688 32.261719 -7.804688 C 20.207031 -7.804688 15.523438 -16.824219 15.523438 -27.839844 C 15.523438 -38.855469 20.207031 -47.789062 32.261719 -47.789062 Z M 32.261719 -56.894531 C 13.097656 -56.894531 3.988281 -43.886719 3.988281 -27.839844 C 3.988281 -11.796875 13.097656 1.128906 32.261719 1.128906 C 51.429688 1.128906 60.535156 -11.796875 60.535156 -27.839844 C 60.535156 -43.886719 51.429688 -56.894531 32.261719 -56.894531 Z M 32.261719 -56.894531 "/></g></g></g><g fill="#000000" fill-opacity="1"><g transform="translate(431.82565, 323.582286)"><g><path d="M 43.453125 -18.90625 L 15.523438 -55.59375 L 2.515625 -55.679688 L 2.515625 -46.660156 L 6.417969 -46.660156 L 6.417969 -9.105469 L 2.515625 -9.105469 L 2.515625 0 L 21.941406 0 L 21.941406 -9.105469 L 18.039062 -9.105469 L 18.039062 -36.6875 L 45.964844 0 L 54.988281 0 L 54.988281 -46.660156 L 58.890625 -46.660156 L 58.890625 -55.59375 L 39.460938 -55.679688 L 39.460938 -46.660156 L 43.453125 -46.660156 Z M 43.453125 -18.90625 "/></g></g></g><g fill="#000000" fill-opacity="1"><g transform="translate(520.721739, 323.582286)"><g><path d="M 31.136719 -46.660156 C 42.757812 -46.660156 47.355469 -38.246094 47.355469 -27.839844 C 47.355469 -17.433594 42.757812 -9.105469 31.136719 -9.105469 L 18.039062 -9.105469 L 18.039062 -46.660156 Z M 2.515625 -55.59375 L 2.515625 -46.660156 L 6.417969 -46.660156 L 6.417969 -9.105469 L 2.515625 -9.105469 L 2.515625 0 L 32.609375 0 C 50.476562 0 58.890625 -12.488281 58.890625 -27.839844 C 58.890625 -43.191406 50.476562 -55.59375 32.609375 -55.59375 Z M 2.515625 -55.59375 "/></g></g></g><g fill="#000000" fill-opacity="1"><g transform="translate(611.092099, 323.582286)"><g><path d="M 2.515625 -55.59375 L 2.515625 -46.660156 L 6.417969 -46.660156 L 6.417969 -9.105469 L 2.515625 -9.105469 L 2.515625 0 L 46.226562 0 L 46.226562 -13.441406 L 38.160156 -13.441406 L 37.640625 -9.105469 L 18.039062 -9.105469 L 18.039062 -23.332031 L 34.257812 -23.332031 L 34.257812 -32.351562 L 18.039062 -32.351562 L 18.039062 -46.660156 L 37.640625 -46.660156 L 38.160156 -42.238281 L 46.226562 -42.238281 L 46.226562 -55.59375 Z M 2.515625 -55.59375 "/></g></g></g><g fill="#000000" fill-opacity="1"><g transform="translate(686.372805, 323.582286)"><g><path d="M 21.507812 0 L 21.507812 -9.105469 L 18.039062 -9.105469 L 18.039062 -24.71875 L 23.675781 -24.71875 L 38.421875 0 L 50.214844 0 L 50.214844 -9.019531 L 45.445312 -9.019531 L 35.386719 -25.5 C 41.804688 -27.320312 46.226562 -32.4375 46.226562 -40.15625 C 46.226562 -49.957031 38.941406 -55.59375 29.75 -55.59375 L 2.515625 -55.59375 L 2.515625 -46.660156 L 6.417969 -46.660156 L 6.417969 -9.105469 L 2.515625 -9.105469 L 2.515625 0 Z M 18.039062 -31.308594 L 18.039062 -46.660156 L 26.539062 -46.660156 C 31.570312 -46.660156 34.691406 -43.363281 34.691406 -38.941406 C 34.691406 -34.34375 31.394531 -31.308594 26.539062 -31.308594 Z M 18.039062 -31.308594 "/></g></g></g><g fill="#000000" fill-opacity="1"><g transform="translate(235.74201, 387.959508)"><g><path d="M 0.972656 -23.949219 L 0.972656 -19.464844 L 2.652344 -19.464844 L 2.652344 -4.558594 L 0.972656 -4.558594 L 0.972656 0 L 20.472656 0 L 20.472656 -6.425781 L 16.4375 -6.425781 L 16.175781 -4.558594 L 8.480469 -4.558594 L 8.480469 -19.464844 L 10.199219 -19.464844 L 10.199219 -23.949219 Z M 0.972656 -23.949219 "/></g></g></g><g fill="#000000" fill-opacity="1"><g transform="translate(268.619745, 387.959508)"><g><path d="M 10.609375 -23.949219 L 2.464844 -4.558594 L 0.710938 -4.558594 L 0.710938 0 L 10.535156 0 L 10.535156 -4.558594 L 8.59375 -4.558594 L 9.75 -7.882812 L 17.410156 -7.882812 L 18.570312 -4.558594 L 16.625 -4.558594 L 16.625 0 L 26.453125 0 L 26.453125 -4.558594 L 24.660156 -4.558594 L 16.511719 -23.949219 Z M 11.207031 -11.917969 L 13.597656 -18.71875 L 15.992188 -11.917969 Z M 11.207031 -11.917969 "/></g></g></g><g fill="#000000" fill-opacity="1"><g transform="translate(307.511385, 387.959508)"><g><path d="M 9.265625 -23.949219 L 0.972656 -23.984375 L 0.972656 -19.464844 L 2.652344 -19.464844 L 2.652344 -4.558594 L 0.972656 -4.558594 L 0.972656 0 L 10.199219 0 L 10.199219 -4.558594 L 8.480469 -4.558594 L 8.480469 -16.699219 L 14.347656 -7.507812 L 15.953125 -7.507812 L 21.855469 -16.699219 L 21.855469 -4.558594 L 20.101562 -4.558594 L 20.101562 0 L 29.367188 0 L 29.367188 -4.558594 L 27.648438 -4.558594 L 27.648438 -19.464844 L 29.367188 -19.464844 L 29.367188 -23.949219 L 21.070312 -23.949219 L 15.167969 -14.347656 Z M 9.265625 -23.949219 "/></g></g></g><g fill="#000000" fill-opacity="1"><g transform="translate(349.540748, 387.959508)"><g><path d="M 9.9375 0 L 9.9375 -4.558594 L 8.480469 -4.558594 L 8.480469 -8.480469 L 15.019531 -8.480469 C 19.054688 -8.480469 22.191406 -11.394531 22.191406 -16.253906 C 22.191406 -21.109375 19.054688 -23.949219 15.019531 -23.949219 L 0.972656 -23.949219 L 0.972656 -19.464844 L 2.652344 -19.464844 L 2.652344 -4.558594 L 0.972656 -4.558594 L 0.972656 0 Z M 8.480469 -13 L 8.480469 -19.464844 L 13.300781 -19.464844 C 15.167969 -19.464844 16.363281 -18.082031 16.363281 -16.253906 C 16.363281 -14.347656 15.09375 -13 13.300781 -13 Z M 8.480469 -13 "/></g></g></g><g fill="#000000" fill-opacity="1"><g transform="translate(384.136746, 387.959508)"><g><path d="M 18.753906 -16.027344 L 18.753906 -19.988281 C 18.753906 -19.988281 16.140625 -24.507812 9.601562 -24.507812 C 4.371094 -24.507812 1.121094 -21.632812 1.121094 -17.1875 C 1.121094 -14.496094 2.464844 -12.703125 5.492188 -11.207031 L 12.589844 -7.695312 C 13.824219 -7.0625 14.121094 -6.390625 14.121094 -5.605469 C 14.121094 -4.332031 12.890625 -3.511719 10.835938 -3.511719 C 7.585938 -3.511719 5.828125 -5.042969 5.007812 -6.128906 L 4.855469 -7.957031 L 1.121094 -7.957031 L 1.121094 -3.996094 C 1.121094 -3.996094 3.773438 0.484375 10.722656 0.484375 C 16.253906 0.484375 19.949219 -2.203125 19.949219 -6.648438 C 19.949219 -9.226562 18.679688 -11.207031 15.953125 -12.554688 L 8.554688 -16.175781 C 7.433594 -16.8125 6.949219 -17.449219 6.949219 -18.308594 C 6.949219 -19.726562 8.03125 -20.472656 9.714844 -20.472656 C 12.03125 -20.472656 13.710938 -19.390625 14.796875 -18.417969 L 14.980469 -16.027344 Z M 18.753906 -16.027344 "/></g></g></g></svg>